<svg width="73" height="16" viewBox="0 0 73 16" fill="none" xmlns="http://www.w3.org/2000/svg">
<path d="M6.10133 15.147C5.02333 15.147 4.05733 14.972 3.20333 14.622C2.34933 14.272 1.66333 13.754 1.14533 13.068C0.641332 12.382 0.375332 11.556 0.347332 10.59H4.16933C4.22533 11.136 4.41433 11.556 4.73633 11.85C5.05833 12.13 5.47833 12.27 5.99633 12.27C6.52833 12.27 6.94833 12.151 7.25633 11.913C7.56433 11.661 7.71833 11.318 7.71833 10.884C7.71833 10.52 7.59233 10.219 7.34033 9.981C7.10233 9.743 6.80133 9.547 6.43733 9.393C6.08733 9.239 5.58333 9.064 4.92533 8.868C3.97333 8.574 3.19633 8.28 2.59433 7.986C1.99233 7.692 1.47433 7.258 1.04033 6.684C0.606332 6.11 0.389332 5.361 0.389332 4.437C0.389332 3.065 0.886332 1.994 1.88033 1.224C2.87433 0.44 4.16933 0.0479997 5.76533 0.0479997C7.38933 0.0479997 8.69833 0.44 9.69233 1.224C10.6863 1.994 11.2183 3.072 11.2883 4.458H7.40333C7.37533 3.982 7.20033 3.611 6.87833 3.345C6.55633 3.065 6.14333 2.925 5.63933 2.925C5.20533 2.925 4.85533 3.044 4.58933 3.282C4.32333 3.506 4.19033 3.835 4.19033 4.269C4.19033 4.745 4.41433 5.116 4.86233 5.382C5.31033 5.648 6.01033 5.935 6.96233 6.243C7.91433 6.565 8.68433 6.873 9.27233 7.167C9.87433 7.461 10.3923 7.888 10.8263 8.448C11.2603 9.008 11.4773 9.729 11.4773 10.611C11.4773 11.451 11.2603 12.214 10.8263 12.9C10.4063 13.586 9.79033 14.132 8.97833 14.538C8.16633 14.944 7.20733 15.147 6.10133 15.147ZM25.2583 3.282V15H21.6673V13.404C21.3033 13.922 20.8063 14.342 20.1763 14.664C19.5603 14.972 18.8743 15.126 18.1183 15.126C17.2223 15.126 16.4313 14.93 15.7453 14.538C15.0593 14.132 14.5273 13.551 14.1493 12.795C13.7713 12.039 13.5823 11.15 13.5823 10.128V3.282H17.1523V9.645C17.1523 10.429 17.3553 11.038 17.7613 11.472C18.1673 11.906 18.7133 12.123 19.3993 12.123C20.0993 12.123 20.6523 11.906 21.0583 11.472C21.4643 11.038 21.6673 10.429 21.6673 9.645V3.282H25.2583ZM34.9776 3.156C36.3496 3.156 37.4416 3.604 38.2536 4.5C39.0796 5.382 39.4926 6.6 39.4926 8.154V15H35.9226V8.637C35.9226 7.853 35.7196 7.244 35.3136 6.81C34.9076 6.376 34.3616 6.159 33.6756 6.159C32.9896 6.159 32.4436 6.376 32.0376 6.81C31.6316 7.244 31.4286 7.853 31.4286 8.637V15H27.8376V3.282H31.4286V4.836C31.7926 4.318 32.2826 3.912 32.8986 3.618C33.5146 3.31 34.2076 3.156 34.9776 3.156ZM47.364 15.189C46.174 15.189 45.11 15.035 44.172 14.727C43.234 14.419 42.415 13.978 41.715 13.404L42.345 12.018C42.835 12.382 43.325 12.69 43.815 12.942C44.319 13.18 44.858 13.362 45.432 13.488C46.006 13.6 46.65 13.656 47.364 13.656C48.61 13.656 49.534 13.425 50.136 12.963C50.738 12.501 51.039 11.885 51.039 11.115C51.039 10.457 50.829 9.953 50.409 9.603C49.989 9.253 49.254 8.973 48.204 8.763L45.999 8.322C44.641 8.042 43.626 7.587 42.954 6.957C42.296 6.327 41.967 5.473 41.967 4.395C41.967 3.513 42.191 2.743 42.639 2.085C43.101 1.427 43.745 0.915999 44.571 0.552C45.397 0.187999 46.356 0.00599903 47.448 0.00599903C48.498 0.00599903 49.457 0.166999 50.325 0.488999C51.193 0.796999 51.935 1.252 52.551 1.854L51.942 3.198C51.284 2.61 50.591 2.19 49.863 1.938C49.149 1.672 48.337 1.539 47.427 1.539C46.279 1.539 45.369 1.791 44.697 2.295C44.039 2.785 43.71 3.457 43.71 4.311C43.71 4.997 43.92 5.536 44.34 5.928C44.76 6.306 45.453 6.593 46.419 6.789L48.645 7.23C50.073 7.524 51.123 7.965 51.795 8.553C52.467 9.141 52.803 9.967 52.803 11.031C52.803 11.843 52.579 12.564 52.131 13.194C51.697 13.824 51.074 14.314 50.262 14.664C49.45 15.014 48.484 15.189 47.364 15.189ZM60.112 15.189C58.46 15.189 57.158 14.713 56.206 13.761C55.254 12.795 54.778 11.458 54.778 9.75C54.778 8.644 54.988 7.685 55.408 6.873C55.828 6.047 56.416 5.41 57.172 4.962C57.928 4.5 58.796 4.269 59.776 4.269C60.742 4.269 61.554 4.472 62.212 4.878C62.87 5.284 63.374 5.865 63.724 6.621C64.074 7.363 64.249 8.245 64.249 9.267V9.897H56.08V8.826H63.136L62.779 9.099C62.779 7.979 62.527 7.104 62.023 6.474C61.519 5.844 60.77 5.529 59.776 5.529C58.726 5.529 57.907 5.9 57.319 6.642C56.731 7.37 56.437 8.357 56.437 9.603V9.792C56.437 11.108 56.759 12.109 57.403 12.795C58.061 13.467 58.978 13.803 60.154 13.803C60.784 13.803 61.372 13.712 61.918 13.53C62.478 13.334 63.01 13.019 63.514 12.585L64.102 13.782C63.64 14.23 63.052 14.58 62.338 14.832C61.638 15.07 60.896 15.189 60.112 15.189ZM70.5899 15.189C69.5539 15.189 68.7629 14.895 68.2169 14.307C67.6709 13.705 67.3979 12.802 67.3979 11.598V5.781H65.3399V4.458H67.3979V1.581L69.0989 1.098V4.458H72.1229V5.781H69.0989V11.409C69.0989 12.249 69.2389 12.851 69.5189 13.215C69.8129 13.565 70.2469 13.74 70.8209 13.74C71.0869 13.74 71.3249 13.719 71.5349 13.677C71.7449 13.621 71.9339 13.558 72.1019 13.488V14.916C71.9059 15 71.6679 15.063 71.3879 15.105C71.1219 15.161 70.8559 15.189 70.5899 15.189Z" fill="#2D2D2D"/>
</svg>
