<svg width="28" height="26" viewBox="0 0 28 26" fill="none" xmlns="http://www.w3.org/2000/svg">
<path d="M20.375 16.3562C20.375 16.3562 18.5187 12.1 14.7312 12.3625C14.6937 12.3625 10.25 12.2312 9.46245 17.9125C9.46245 17.875 4.73745 17.4625 4.4187 21.025C4.4562 21.0437 4.0437 25.6187 10.0062 25.225L23.0562 25.2475C23.0562 25.2475 28.325 23.0425 26.1875 18.7975C24.05 14.5525 20.375 16.3562 20.375 16.3562Z" fill="white"/>
<path d="M20.6787 10.105C20.6787 11.5075 20.39 12.8462 19.8687 14.0575C19.6887 14.4775 19.4787 14.8825 19.2462 15.2725C18.3912 13.8287 16.8162 12.8575 15.0237 12.8575C12.3762 12.8575 10.2162 14.965 10.1225 17.5862C10.1187 17.6462 10.1187 17.7025 10.1187 17.7625V17.7775C10.1187 17.8375 10.1187 17.8975 10.1225 17.9575C10.1412 18.385 9.71374 18.6925 9.31624 18.55C9.26374 18.5312 9.21874 18.5125 9.16624 18.4975H9.15874C9.14374 18.49 9.12874 18.49 9.10999 18.4825C9.09124 18.475 9.07249 18.475 9.05749 18.4675C9.01999 18.46 8.98999 18.4487 8.95249 18.4412C8.74249 18.3925 8.52499 18.3662 8.30374 18.3587C7.51624 18.3437 6.78874 18.6175 6.22249 19.0825C5.84374 18.895 5.47999 18.685 5.13124 18.4525C2.42749 16.6637 0.64624 13.5962 0.64624 10.105C0.64624 4.57375 5.13124 0.0924988 10.6625 0.0924988C16.1937 0.0924988 20.6787 4.57375 20.6787 10.105Z" fill="#FFBC00"/>
<path d="M22.0774 15.535C21.6237 15.5388 21.1849 15.5988 20.7687 15.7075C20.3825 15.8088 20.0112 15.955 19.6662 16.1425C19.6587 16.1463 19.6587 16.1538 19.6587 16.1613C19.6662 16.1838 19.6737 16.21 19.6812 16.2325C19.6887 16.2475 19.6887 16.2625 19.6962 16.2775C19.7037 16.3 19.7112 16.33 19.7187 16.3525C19.8612 16.825 20.3637 17.095 20.8362 16.9375C20.8549 16.93 20.8737 16.9263 20.8887 16.9188C20.9187 16.9113 20.9487 16.9 20.975 16.8925C21.005 16.885 21.0312 16.8738 21.0612 16.87C21.3312 16.7988 21.6124 16.7538 21.9012 16.7388C24.2937 16.6225 26.27 18.6475 26.09 21.0363C25.9475 22.9038 24.5225 24.415 22.7 24.6888C22.505 24.7188 22.3025 24.7338 22.1 24.7338H18.8224C18.8075 24.7338 18.8 24.7525 18.815 24.76C19.6775 25.465 20.7687 25.8963 21.9575 25.93C22.0062 25.9338 22.055 25.9338 22.1 25.9338C22.3025 25.9338 22.5012 25.9225 22.7 25.9C25.295 25.6 27.3125 23.3838 27.3012 20.7063C27.29 17.8488 24.9387 15.5238 22.0774 15.535ZM8.83995 24.7375H8.23995C8.03745 24.7375 7.83495 24.7188 7.63995 24.6813C6.1437 24.3925 5.01495 23.0575 5.05245 21.4675C5.07495 20.5075 5.5287 19.6563 6.22245 19.09C6.7887 18.625 7.51995 18.3513 8.3037 18.3663C8.52495 18.3738 8.74245 18.4 8.95245 18.4488C8.98995 18.4563 9.01995 18.4675 9.05745 18.475C9.0762 18.4788 9.09495 18.4825 9.10995 18.49C9.12495 18.4938 9.13995 18.4975 9.1587 18.505H9.1662C9.64245 18.6513 10.1225 18.2875 10.1187 17.785V17.77C10.1187 17.71 10.1187 17.65 10.1225 17.5938C9.75495 17.4175 9.35745 17.2938 8.94495 17.2263C8.7162 17.1888 8.4837 17.17 8.2437 17.17C7.03245 17.17 5.92995 17.665 5.13495 18.4638C4.34745 19.2588 3.8562 20.35 3.8562 21.5575C3.8562 23.77 5.5062 25.6113 7.6437 25.9C7.79745 25.9225 7.9512 25.9338 8.10495 25.9375H8.11245C8.1537 25.9413 8.1987 25.9413 8.23995 25.9413C8.28495 25.9413 8.32995 25.9413 8.37495 25.9375C9.48495 25.9038 10.4975 25.4538 11.2512 24.7413H8.83995V24.7375Z" fill="#6D6D6D"/>
<path d="M20.7688 15.7075C20.5513 15.1113 20.2513 14.5563 19.8688 14.0613C18.7513 12.6025 16.9963 11.6613 15.02 11.6613C11.8363 11.6613 9.21502 14.11 8.93752 17.2188C8.92252 17.3988 8.91502 17.5825 8.91502 17.7663C8.91502 17.995 8.92627 18.2238 8.95252 18.445C8.99002 18.4525 9.02001 18.4638 9.05751 18.4713C9.07626 18.475 9.09502 18.4788 9.11002 18.4863C9.12502 18.49 9.14002 18.4938 9.15877 18.5013H9.16626C9.21876 18.5163 9.26376 18.535 9.31626 18.5538C9.71751 18.6963 10.1413 18.3888 10.1225 17.9613C10.1188 17.9013 10.1188 17.8413 10.1188 17.7813V17.7663C10.1188 17.7063 10.1188 17.6463 10.1225 17.59C10.2163 14.9688 12.38 12.8613 15.0238 12.8613C16.82 12.8613 18.3913 13.8288 19.2463 15.2763C19.4075 15.5538 19.5463 15.8425 19.655 16.15C19.655 16.1538 19.6588 16.1575 19.6588 16.1613C19.6663 16.1838 19.6738 16.21 19.6813 16.2325C19.6888 16.2475 19.6888 16.2625 19.6963 16.2775C19.7 16.285 19.7038 16.2925 19.7038 16.3C19.8613 16.7988 20.39 17.0838 20.8888 16.9225C20.9188 16.915 20.9488 16.9038 20.975 16.8963C21.005 16.8888 21.0313 16.8775 21.0613 16.8738C21.0013 16.4688 20.9038 16.0788 20.7688 15.7075ZM22.1 24.7375C21.8975 24.7375 21.695 24.7675 21.5 24.7375H8.84002C8.77252 24.7488 8.71252 24.7525 8.64502 24.7525C8.51377 24.7525 8.37876 24.7375 8.24001 24.7375C8.03751 24.7375 7.83501 24.7188 7.64001 24.6813L8.10127 25.9338H22.1263L22.7038 24.6925C22.505 24.7225 22.3063 24.7375 22.1 24.7375Z" fill="#6D6D6D"/>
</svg>
